M48
; DRILL file {KiCad 9.0.2} date 2025-07-01T13:46:48+0400
; FORMAT={-:-/ absolute / metric / decimal}
; #@! TF.CreationDate,2025-07-01T13:46:48+04:00
; #@! TF.GenerationSoftware,Kicad,Pcbnew,9.0.2
; #@! TF.FileFunction,Plated,1,2,PTH
FMAT,2
METRIC
; #@! TA.AperFunction,Plated,PTH,ComponentDrill
T1C0.750
; #@! TA.AperFunction,Plated,PTH,ComponentDrill
T2C0.800
; #@! TA.AperFunction,Plated,PTH,ComponentDrill
T3C0.900
; #@! TA.AperFunction,Plated,PTH,ComponentDrill
T4C1.000
; #@! TA.AperFunction,Plated,PTH,ComponentDrill
T5C1.100
; #@! TA.AperFunction,Plated,PTH,ViaDrill
T6C5.000
%
G90
G05
T1
X121.73Y-101.77
X123.0Y-100.5
X124.27Y-101.77
T2
X79.5Y-96.0
X79.5Y-101.0
X96.38Y-97.5
X96.38Y-102.5
X96.69Y-93.0
X104.0Y-97.5
X104.0Y-102.5
X104.31Y-93.0
T3
X73.46Y-75.0
X76.0Y-75.0
X151.96Y-74.5
X154.5Y-74.5
T4
X152.0Y-99.5
X152.0Y-102.04
T5
X110.5Y-60.0
X110.5Y-64.5
X117.0Y-60.0
X117.0Y-64.5
T6
X75.5Y-55.5
M30
